<svg width="40" height="40" viewBox="0 0 40 40" fill="none" xmlns="http://www.w3.org/2000/svg">
<path d="M14.043 18.7188L18.727 14.0347C19.5992 14.9069 19.6022 16.3249 18.727 17.2001L17.2084 18.7188C16.3362 19.5909 14.9182 19.594 14.043 18.7188Z" fill="#25141C"/>
<path d="M6.99455 18.7521C7.87002 19.6275 9.32339 19.5887 10.242 18.6658L12.4846 16.4232C13.4075 15.5003 13.442 14.0469 12.5708 13.1758L6.99023 18.7564L6.99455 18.7521Z" fill="#25141C"/>
<path d="M13.1758 12.5724C14.0513 13.4478 15.5046 13.409 16.4232 12.4861L18.6658 10.2435C19.5844 9.32493 19.6232 7.86725 18.7521 6.99609L13.1758 12.5724Z" fill="#25141C"/>
<path d="M0 18.7261C0.875472 19.6015 2.29003 19.6015 3.1655 18.7261L5.83935 16.0522C6.71483 15.1767 6.71483 13.7622 5.83935 12.8867L0 18.7261Z" fill="#25141C"/>
<path d="M12.8906 5.83935C13.7661 6.71482 15.1807 6.71482 16.0561 5.83935L18.73 3.1655C19.6055 2.29003 19.6055 0.875472 18.73 0L12.8906 5.83935Z" fill="#25141C"/>
<path d="M6.44141 12.2827C7.31688 13.1582 8.73143 13.1582 9.60691 12.2827L12.2808 9.60886C13.1562 8.73339 13.1562 7.31883 12.2808 6.44336L6.44141 12.2827Z" fill="#25141C"/>
<path d="M21.278 22.7943L22.7967 21.2756C23.6688 20.4034 25.0869 20.4004 25.9621 21.2756L21.278 25.9597C20.4058 25.0875 20.4028 23.6695 21.278 22.7943Z" fill="#25141C"/>
<path d="M21.2493 32.9997C20.3738 32.1242 20.4126 30.6708 21.3355 29.7522L23.5781 27.5096C24.501 26.5867 25.9544 26.5522 26.8255 27.4234L21.245 33.004L21.2493 32.9997Z" fill="#25141C"/>
<path d="M27.4329 26.8243C26.5574 25.9488 26.5962 24.4954 27.5191 23.5768L29.7617 21.3342C30.6803 20.4156 32.138 20.3768 33.0091 21.248L27.4329 26.8243Z" fill="#25141C"/>
<path d="M21.2777 39.9999C20.4022 39.1244 20.4022 37.7098 21.2777 36.8344L23.9516 34.1605C24.827 33.285 26.2416 33.285 27.1171 34.1605L21.2777 39.9999Z" fill="#25141C"/>
<path d="M34.1586 27.1131C33.2831 26.2377 33.2831 24.8231 34.1586 23.9476L36.8324 21.2738C37.7079 20.3983 39.1224 20.3983 39.9979 21.2738L34.1586 27.1131Z" fill="#25141C"/>
<path d="M27.7172 33.5565C26.8417 32.681 26.8417 31.2665 27.7172 30.391L30.391 27.7172C31.2665 26.8417 32.681 26.8417 33.5565 27.7172L27.7172 33.5565Z" fill="#25141C"/>
<path d="M21.2773 14.043L25.9614 18.727C25.0892 19.5992 23.6712 19.6022 22.796 18.727L21.2773 17.2084C20.4052 16.3362 20.4021 14.9182 21.2773 14.043Z" fill="#25141C"/>
<path d="M21.2493 6.99455C20.3738 7.87002 20.4126 9.32339 21.3355 10.242L23.5781 12.4846C24.501 13.4075 25.9544 13.442 26.8255 12.5708L21.245 6.99023L21.2493 6.99455Z" fill="#25141C"/>
<path d="M27.4329 13.1758C26.5574 14.0513 26.5962 15.5046 27.5191 16.4232L29.7617 18.6658C30.6803 19.5844 32.138 19.6232 33.0091 18.7521L27.4329 13.1758Z" fill="#25141C"/>
<path d="M21.2777 0C20.4022 0.875472 20.4022 2.29003 21.2777 3.1655L23.9516 5.83935C24.827 6.71482 26.2416 6.71482 27.1171 5.83935L21.2777 0Z" fill="#25141C"/>
<path d="M34.1586 12.8867C33.2831 13.7622 33.2831 15.1767 34.1586 16.0522L36.8324 18.7261C37.7079 19.6015 39.1224 19.6015 39.9979 18.7261L34.1586 12.8867Z" fill="#25141C"/>
<path d="M27.7172 6.44336C26.8417 7.31883 26.8417 8.73339 27.7172 9.60886L30.391 12.2827C31.2665 13.1582 32.681 13.1582 33.5565 12.2827L27.7172 6.44336Z" fill="#25141C"/>
<path d="M17.2038 21.28L18.7225 22.7986C19.5946 23.6708 19.5977 25.0888 18.7225 25.964L14.0384 21.28C14.9106 20.4078 16.3286 20.4048 17.2038 21.28Z" fill="#25141C"/>
<path d="M6.99455 21.2493C7.87002 20.3738 9.32339 20.4126 10.242 21.3355L12.4846 23.5781C13.4075 24.501 13.442 25.9544 12.5708 26.8255L6.99023 21.245L6.99455 21.2493Z" fill="#25141C"/>
<path d="M13.1758 27.429C14.0513 26.5535 15.5046 26.5923 16.4232 27.5152L18.6658 29.7578C19.5844 30.6764 19.6232 32.1341 18.7521 33.0052L13.1758 27.429Z" fill="#25141C"/>
<path d="M0 21.2738C0.875472 20.3983 2.29003 20.3983 3.1655 21.2738L5.83935 23.9476C6.71483 24.8231 6.71483 26.2377 5.83935 27.1131L0 21.2738Z" fill="#25141C"/>
<path d="M12.8906 34.1605C13.7661 33.285 15.1807 33.285 16.0561 34.1605L18.73 36.8344C19.6055 37.7098 19.6055 39.1244 18.73 39.9999L12.8906 34.1605Z" fill="#25141C"/>
<path d="M6.44141 27.7172C7.31688 26.8417 8.73143 26.8417 9.60691 27.7172L12.2808 30.391C13.1562 31.2665 13.1562 32.681 12.2808 33.5565L6.44141 27.7172Z" fill="#25141C"/>
</svg>
